<svg xmlns="http://www.w3.org/2000/svg" xmlns:xlink="http://www.w3.org/1999/xlink" width="225" zoomAndPan="magnify" viewBox="0 0 168.75 97.5" height="130" preserveAspectRatio="xMidYMid meet" version="1.0"><defs><g/></defs><g fill="#ffffff" fill-opacity="1"><g transform="translate(47.432982, 37.308675)"><g><path d="M 2.003906 -21.671875 L 2.003906 0 L 4.957031 0 L 4.957031 -16.851562 L 16.546875 0 L 19.5 0 L 19.5 -21.671875 L 16.546875 -21.671875 L 16.546875 -4.820312 L 4.957031 -21.671875 Z M 2.003906 -21.671875 "/></g></g></g><g fill="#ffffff" fill-opacity="1"><g transform="translate(68.907909, 37.308675)"><g><path d="M 5.097656 -15.488281 C 3.371094 -15.488281 2.003906 -14.09375 2.003906 -12.367188 L 2.003906 -3.09375 C 2.003906 -1.363281 3.371094 0 5.097656 0 L 12.3125 0 C 14.039062 0 15.402344 -1.363281 15.402344 -3.09375 L 15.402344 -12.367188 C 15.402344 -14.09375 14.039062 -15.488281 12.3125 -15.488281 Z M 6.042969 -12.898438 L 11.363281 -12.898438 C 12.089844 -12.898438 12.703125 -12.257812 12.703125 -11.53125 L 12.703125 -3.925781 C 12.703125 -3.203125 12.089844 -2.5625 11.363281 -2.5625 L 6.042969 -2.5625 C 5.320312 -2.5625 4.707031 -3.203125 4.707031 -3.925781 L 4.707031 -11.53125 C 4.707031 -12.257812 5.320312 -12.898438 6.042969 -12.898438 Z M 6.042969 -12.898438 "/></g></g></g><g fill="#ffffff" fill-opacity="1"><g transform="translate(86.288401, 37.308675)"><g><path d="M 12.703125 -21.671875 L 12.703125 -13.007812 C 12.0625 -14.539062 10.472656 -15.488281 8.914062 -15.488281 L 5.097656 -15.488281 C 3.371094 -15.488281 2.003906 -14.09375 2.003906 -12.367188 L 2.003906 -3.09375 C 2.003906 -1.363281 3.371094 0 5.097656 0 L 8.914062 0 C 10.585938 0 12.089844 -1.058594 12.703125 -2.535156 L 12.703125 0 L 15.402344 0 L 15.402344 -21.671875 Z M 6.042969 -12.898438 L 9.75 -12.898438 C 11.363281 -12.898438 12.703125 -11.585938 12.703125 -9.972656 L 12.703125 -5.65625 C 12.703125 -4.039062 11.363281 -2.5625 9.75 -2.5625 L 6.042969 -2.5625 C 5.320312 -2.5625 4.707031 -3.203125 4.707031 -3.925781 L 4.707031 -11.53125 C 4.707031 -12.257812 5.320312 -12.898438 6.042969 -12.898438 Z M 6.042969 -12.898438 "/></g></g></g><g fill="#ffffff" fill-opacity="1"><g transform="translate(103.668893, 37.308675)"><g><path d="M 5.097656 -15.488281 C 3.371094 -15.488281 2.003906 -14.09375 2.003906 -12.367188 L 2.003906 -3.09375 C 2.003906 -1.363281 3.371094 0 5.097656 0 L 12.3125 0 C 14.039062 0 15.402344 -1.363281 15.402344 -3.09375 L 15.402344 -4.789062 L 12.703125 -4.789062 L 12.703125 -3.925781 C 12.703125 -3.203125 12.089844 -2.5625 11.363281 -2.5625 L 6.042969 -2.5625 C 5.320312 -2.5625 4.707031 -3.203125 4.707031 -3.925781 L 4.707031 -6.488281 L 15.402344 -6.488281 L 15.402344 -12.367188 C 15.402344 -14.09375 14.039062 -15.488281 12.3125 -15.488281 Z M 4.707031 -8.96875 L 4.707031 -11.53125 C 4.707031 -12.257812 5.320312 -12.898438 6.042969 -12.898438 L 11.363281 -12.898438 C 12.089844 -12.898438 12.703125 -12.257812 12.703125 -11.53125 L 12.703125 -8.96875 Z M 4.707031 -8.96875 "/></g></g></g><g fill="#ffffff" fill-opacity="1"><g transform="translate(13.93679, 76.109694)"><g><path d="M 5.097656 -21.671875 C 3.425781 -21.671875 2.003906 -20.25 2.003906 -18.578125 L 2.003906 -3.09375 C 2.003906 -1.421875 3.425781 0 5.097656 0 L 16.40625 0 C 18.078125 0 19.5 -1.421875 19.5 -3.09375 L 19.5 -18.578125 C 19.5 -20.25 18.078125 -21.671875 16.40625 -21.671875 Z M 6.265625 -18.828125 L 15.238281 -18.828125 C 15.960938 -18.828125 16.546875 -18.273438 16.546875 -17.546875 L 16.546875 -4.121094 C 16.546875 -3.398438 15.960938 -2.839844 15.238281 -2.839844 L 6.265625 -2.839844 C 5.542969 -2.839844 4.957031 -3.398438 4.957031 -4.121094 L 4.957031 -17.546875 C 4.957031 -18.273438 5.542969 -18.828125 6.265625 -18.828125 Z M 6.265625 -18.828125 "/></g></g></g><g fill="#ffffff" fill-opacity="1"><g transform="translate(35.411717, 76.109694)"><g><path d="M 2.003906 -15.488281 L 2.003906 6.183594 L 4.707031 6.183594 L 4.707031 -2.535156 C 5.347656 -0.945312 6.878906 0 8.441406 0 L 12.3125 0 C 14.039062 0 15.402344 -1.363281 15.402344 -3.09375 L 15.402344 -12.367188 C 15.402344 -14.09375 14.039062 -15.488281 12.3125 -15.488281 L 8.441406 -15.488281 C 6.769531 -15.488281 5.320312 -14.457031 4.707031 -12.980469 L 4.707031 -15.488281 Z M 7.660156 -12.898438 L 11.226562 -12.898438 C 11.976562 -12.898438 12.703125 -12.285156 12.703125 -11.53125 L 12.703125 -3.925781 C 12.703125 -3.175781 11.976562 -2.5625 11.226562 -2.5625 L 7.660156 -2.5625 C 6.042969 -2.5625 4.707031 -3.984375 4.707031 -5.625 L 4.707031 -9.832031 C 4.707031 -11.449219 6.042969 -12.898438 7.660156 -12.898438 Z M 7.660156 -12.898438 "/></g></g></g><g fill="#ffffff" fill-opacity="1"><g transform="translate(52.792209, 76.109694)"><g><path d="M 5.097656 -15.488281 C 3.371094 -15.488281 2.003906 -14.09375 2.003906 -12.367188 L 2.003906 -3.09375 C 2.003906 -1.363281 3.371094 0 5.097656 0 L 12.3125 0 C 14.039062 0 15.402344 -1.363281 15.402344 -3.09375 L 15.402344 -4.789062 L 12.703125 -4.789062 L 12.703125 -3.925781 C 12.703125 -3.203125 12.089844 -2.5625 11.363281 -2.5625 L 6.042969 -2.5625 C 5.320312 -2.5625 4.707031 -3.203125 4.707031 -3.925781 L 4.707031 -6.488281 L 15.402344 -6.488281 L 15.402344 -12.367188 C 15.402344 -14.09375 14.039062 -15.488281 12.3125 -15.488281 Z M 4.707031 -8.96875 L 4.707031 -11.53125 C 4.707031 -12.257812 5.320312 -12.898438 6.042969 -12.898438 L 11.363281 -12.898438 C 12.089844 -12.898438 12.703125 -12.257812 12.703125 -11.53125 L 12.703125 -8.96875 Z M 4.707031 -8.96875 "/></g></g></g><g fill="#ffffff" fill-opacity="1"><g transform="translate(70.172701, 76.109694)"><g><path d="M 2.003906 -15.488281 L 2.003906 0 L 4.707031 0 L 4.707031 -9.972656 C 4.707031 -11.585938 6.042969 -12.898438 7.660156 -12.898438 L 10.945312 -12.898438 L 10.945312 -15.488281 L 8.46875 -15.488281 C 6.90625 -15.488281 5.347656 -14.539062 4.707031 -13.007812 L 4.707031 -15.488281 Z M 2.003906 -15.488281 "/></g></g></g><g fill="#ffffff" fill-opacity="1"><g transform="translate(81.369743, 76.109694)"><g><path d="M 5.097656 -15.488281 C 3.398438 -15.488281 2.003906 -14.066406 2.003906 -12.367188 L 2.003906 -10.917969 L 4.707031 -10.917969 L 4.707031 -11.53125 C 4.707031 -12.257812 5.320312 -12.898438 6.042969 -12.898438 L 10.75 -12.898438 C 11.476562 -12.898438 12.0625 -12.257812 12.0625 -11.53125 L 12.0625 -9.277344 L 4.484375 -9.277344 C 2.757812 -9.277344 1.394531 -7.910156 1.394531 -6.183594 L 1.394531 -3.09375 C 1.394531 -1.363281 2.757812 0 4.484375 0 L 8.300781 0 C 10.027344 0 11.449219 -0.976562 12.0625 -2.453125 L 12.0625 0 L 14.789062 0 L 14.789062 -12.367188 C 14.789062 -14.09375 13.398438 -15.488281 11.671875 -15.488281 Z M 12.0625 -6.796875 L 12.0625 -5.515625 C 12.0625 -3.898438 10.75 -2.5625 9.136719 -2.5625 L 5.402344 -2.5625 C 4.679688 -2.5625 4.09375 -3.203125 4.09375 -3.925781 L 4.09375 -5.488281 C 4.09375 -6.210938 4.679688 -6.796875 5.402344 -6.796875 Z M 12.0625 -6.796875 "/></g></g></g><g fill="#ffffff" fill-opacity="1"><g transform="translate(98.137456, 76.109694)"><g><path d="M 2.257812 -21.390625 L 2.257812 -3.09375 C 2.257812 -1.363281 3.621094 0 5.347656 0 L 10.054688 0 L 10.054688 -2.5625 L 6.265625 -2.5625 C 5.542969 -2.5625 4.957031 -3.203125 4.957031 -3.925781 L 4.957031 -12.898438 L 10.054688 -12.898438 L 10.054688 -15.488281 L 4.957031 -15.488281 L 4.957031 -21.390625 Z M 2.257812 -21.390625 "/></g></g></g><g fill="#ffffff" fill-opacity="1"><g transform="translate(108.582461, 76.109694)"><g><path d="M 5.097656 -15.488281 C 3.371094 -15.488281 2.003906 -14.09375 2.003906 -12.367188 L 2.003906 -3.09375 C 2.003906 -1.363281 3.371094 0 5.097656 0 L 12.3125 0 C 14.039062 0 15.402344 -1.363281 15.402344 -3.09375 L 15.402344 -12.367188 C 15.402344 -14.09375 14.039062 -15.488281 12.3125 -15.488281 Z M 6.042969 -12.898438 L 11.363281 -12.898438 C 12.089844 -12.898438 12.703125 -12.257812 12.703125 -11.53125 L 12.703125 -3.925781 C 12.703125 -3.203125 12.089844 -2.5625 11.363281 -2.5625 L 6.042969 -2.5625 C 5.320312 -2.5625 4.707031 -3.203125 4.707031 -3.925781 L 4.707031 -11.53125 C 4.707031 -12.257812 5.320312 -12.898438 6.042969 -12.898438 Z M 6.042969 -12.898438 "/></g></g></g><g fill="#ffffff" fill-opacity="1"><g transform="translate(125.962953, 76.109694)"><g><path d="M 2.003906 -15.488281 L 2.003906 0 L 4.707031 0 L 4.707031 -9.972656 C 4.707031 -11.585938 6.042969 -12.898438 7.660156 -12.898438 L 10.945312 -12.898438 L 10.945312 -15.488281 L 8.46875 -15.488281 C 6.90625 -15.488281 5.347656 -14.539062 4.707031 -13.007812 L 4.707031 -15.488281 Z M 2.003906 -15.488281 "/></g></g></g><g fill="#ffffff" fill-opacity="1"><g transform="translate(137.159995, 76.109694)"><g><path d="M 5.097656 -15.488281 C 3.371094 -15.488281 2.003906 -14.09375 2.003906 -12.367188 L 2.003906 -9.582031 C 2.003906 -7.855469 3.371094 -6.488281 5.097656 -6.488281 L 11.363281 -6.488281 C 12.089844 -6.488281 12.703125 -5.90625 12.703125 -5.179688 L 12.703125 -3.925781 C 12.703125 -3.203125 12.089844 -2.5625 11.363281 -2.5625 L 6.042969 -2.5625 C 5.320312 -2.5625 4.707031 -3.203125 4.707031 -3.925781 L 4.707031 -4.652344 L 2.003906 -4.652344 L 2.003906 -3.09375 C 2.003906 -1.421875 3.425781 0 5.097656 0 L 12.3125 0 C 14.039062 0 15.402344 -1.363281 15.402344 -3.09375 L 15.402344 -5.765625 C 15.402344 -7.546875 14.039062 -8.96875 12.3125 -8.96875 L 6.042969 -8.96875 C 5.320312 -8.96875 4.707031 -9.554688 4.707031 -10.277344 L 4.707031 -11.53125 C 4.707031 -12.257812 5.320312 -12.898438 6.042969 -12.898438 L 11.363281 -12.898438 C 12.089844 -12.898438 12.703125 -12.257812 12.703125 -11.53125 L 12.703125 -10.808594 L 15.402344 -10.808594 L 15.402344 -12.367188 C 15.402344 -14.039062 13.984375 -15.488281 12.3125 -15.488281 Z M 5.097656 -15.488281 "/></g></g></g><g fill="#ffffff" fill-opacity="1"><g transform="translate(154.543847, 76.109694)"><g/></g></g></svg>