<svg xmlns="http://www.w3.org/2000/svg" xmlns:xlink="http://www.w3.org/1999/xlink" width="225" zoomAndPan="magnify" viewBox="0 0 168.75 97.5" height="130" preserveAspectRatio="xMidYMid meet" version="1.0"><defs><g/></defs><g fill="#ffffff" fill-opacity="1"><g transform="translate(38.074156, 41.175999)"><g><path d="M 8.46875 -21.671875 L 0.304688 0 L 3.398438 0 L 5.597656 -5.738281 L 15.90625 -5.738281 L 18.105469 0 L 21.199219 0 L 13.035156 -21.671875 Z M 6.683594 -8.578125 L 10.75 -19.164062 L 14.820312 -8.578125 Z M 6.683594 -8.578125 "/></g></g></g><g fill="#ffffff" fill-opacity="1"><g transform="translate(59.549083, 41.175999)"><g><path d="M 7.660156 -12.898438 L 11.363281 -12.898438 C 12.089844 -12.898438 12.703125 -12.257812 12.703125 -11.53125 L 12.703125 -3.925781 C 12.703125 -3.203125 12.089844 -2.5625 11.363281 -2.5625 L 7.660156 -2.5625 C 6.042969 -2.5625 4.707031 -4.039062 4.707031 -5.65625 L 4.707031 -9.972656 C 4.707031 -11.585938 6.042969 -12.898438 7.660156 -12.898438 Z M 2.003906 -21.671875 L 2.003906 0 L 4.707031 0 L 4.707031 -2.507812 C 5.320312 -1.03125 6.769531 0 8.441406 0 L 12.3125 0 C 14.039062 0 15.402344 -1.363281 15.402344 -3.09375 L 15.402344 -12.367188 C 15.402344 -14.09375 14.039062 -15.488281 12.3125 -15.488281 L 8.441406 -15.488281 C 6.878906 -15.488281 5.347656 -14.566406 4.707031 -13.035156 L 4.707031 -21.671875 Z M 2.003906 -21.671875 "/></g></g></g><g fill="#ffffff" fill-opacity="1"><g transform="translate(76.929575, 41.175999)"><g><path d="M 5.097656 -15.488281 C 3.371094 -15.488281 2.003906 -14.09375 2.003906 -12.367188 L 2.003906 -3.09375 C 2.003906 -1.363281 3.371094 0 5.097656 0 L 12.3125 0 C 14.039062 0 15.402344 -1.363281 15.402344 -3.09375 L 15.402344 -12.367188 C 15.402344 -14.09375 14.039062 -15.488281 12.3125 -15.488281 Z M 6.042969 -12.898438 L 11.363281 -12.898438 C 12.089844 -12.898438 12.703125 -12.257812 12.703125 -11.53125 L 12.703125 -3.925781 C 12.703125 -3.203125 12.089844 -2.5625 11.363281 -2.5625 L 6.042969 -2.5625 C 5.320312 -2.5625 4.707031 -3.203125 4.707031 -3.925781 L 4.707031 -11.53125 C 4.707031 -12.257812 5.320312 -12.898438 6.042969 -12.898438 Z M 6.042969 -12.898438 "/></g></g></g><g fill="#ffffff" fill-opacity="1"><g transform="translate(94.310067, 41.175999)"><g><path d="M 2.003906 -15.488281 L 2.003906 -3.09375 C 2.003906 -1.363281 3.371094 0 5.097656 0 L 8.914062 0 C 10.472656 0 12.0625 -1.003906 12.703125 -2.617188 L 12.703125 0 L 15.402344 0 L 15.402344 -15.488281 L 12.703125 -15.488281 L 12.703125 -5.738281 C 12.703125 -4.039062 11.363281 -2.5625 9.75 -2.5625 L 6.042969 -2.5625 C 5.320312 -2.5625 4.707031 -3.203125 4.707031 -3.925781 L 4.707031 -15.488281 Z M 2.003906 -15.488281 "/></g></g></g><g fill="#ffffff" fill-opacity="1"><g transform="translate(111.690559, 41.175999)"><g><path d="M 2.257812 -21.390625 L 2.257812 -3.09375 C 2.257812 -1.363281 3.621094 0 5.347656 0 L 10.054688 0 L 10.054688 -2.5625 L 6.265625 -2.5625 C 5.542969 -2.5625 4.957031 -3.203125 4.957031 -3.925781 L 4.957031 -12.898438 L 10.054688 -12.898438 L 10.054688 -15.488281 L 4.957031 -15.488281 L 4.957031 -21.390625 Z M 2.257812 -21.390625 "/></g></g></g><g fill="#ffffff" fill-opacity="1"><g transform="translate(122.146916, 41.175999)"><g/></g></g><g fill="#ffffff" fill-opacity="1"><g transform="translate(25.494138, 79.977018)"><g><path d="M 5.097656 -21.671875 C 3.371094 -21.671875 2.003906 -20.304688 2.003906 -18.578125 L 2.003906 -3.09375 C 2.003906 -1.363281 3.371094 0 5.097656 0 L 16.40625 0 C 18.132812 0 19.5 -1.363281 19.5 -3.09375 L 19.5 -5.097656 L 16.546875 -5.097656 L 16.546875 -4.121094 C 16.546875 -3.398438 15.960938 -2.839844 15.238281 -2.839844 L 6.265625 -2.839844 C 5.542969 -2.839844 4.957031 -3.398438 4.957031 -4.121094 L 4.957031 -17.546875 C 4.957031 -18.273438 5.542969 -18.828125 6.265625 -18.828125 L 15.238281 -18.828125 C 15.960938 -18.828125 16.546875 -18.273438 16.546875 -17.546875 L 16.546875 -16.574219 L 19.5 -16.574219 L 19.5 -18.578125 C 19.5 -20.304688 18.132812 -21.671875 16.40625 -21.671875 Z M 5.097656 -21.671875 "/></g></g></g><g fill="#ffffff" fill-opacity="1"><g transform="translate(46.523418, 79.977018)"><g><path d="M 2.003906 -15.488281 L 2.003906 0 L 4.707031 0 L 4.707031 -9.972656 C 4.707031 -11.585938 6.042969 -12.898438 7.660156 -12.898438 L 10.945312 -12.898438 L 10.945312 -15.488281 L 8.46875 -15.488281 C 6.90625 -15.488281 5.347656 -14.539062 4.707031 -13.007812 L 4.707031 -15.488281 Z M 2.003906 -15.488281 "/></g></g></g><g fill="#ffffff" fill-opacity="1"><g transform="translate(57.72046, 79.977018)"><g><path d="M 5.097656 -15.488281 C 3.371094 -15.488281 2.003906 -14.09375 2.003906 -12.367188 L 2.003906 -3.09375 C 2.003906 -1.363281 3.371094 0 5.097656 0 L 12.3125 0 C 14.039062 0 15.402344 -1.363281 15.402344 -3.09375 L 15.402344 -12.367188 C 15.402344 -14.09375 14.039062 -15.488281 12.3125 -15.488281 Z M 6.042969 -12.898438 L 11.363281 -12.898438 C 12.089844 -12.898438 12.703125 -12.257812 12.703125 -11.53125 L 12.703125 -3.925781 C 12.703125 -3.203125 12.089844 -2.5625 11.363281 -2.5625 L 6.042969 -2.5625 C 5.320312 -2.5625 4.707031 -3.203125 4.707031 -3.925781 L 4.707031 -11.53125 C 4.707031 -12.257812 5.320312 -12.898438 6.042969 -12.898438 Z M 6.042969 -12.898438 "/></g></g></g><g fill="#ffffff" fill-opacity="1"><g transform="translate(75.100952, 79.977018)"><g><path d="M 5.097656 -15.488281 C 3.371094 -15.488281 2.003906 -14.09375 2.003906 -12.367188 L 2.003906 -9.582031 C 2.003906 -7.855469 3.371094 -6.488281 5.097656 -6.488281 L 11.363281 -6.488281 C 12.089844 -6.488281 12.703125 -5.90625 12.703125 -5.179688 L 12.703125 -3.925781 C 12.703125 -3.203125 12.089844 -2.5625 11.363281 -2.5625 L 6.042969 -2.5625 C 5.320312 -2.5625 4.707031 -3.203125 4.707031 -3.925781 L 4.707031 -4.652344 L 2.003906 -4.652344 L 2.003906 -3.09375 C 2.003906 -1.421875 3.425781 0 5.097656 0 L 12.3125 0 C 14.039062 0 15.402344 -1.363281 15.402344 -3.09375 L 15.402344 -5.765625 C 15.402344 -7.546875 14.039062 -8.96875 12.3125 -8.96875 L 6.042969 -8.96875 C 5.320312 -8.96875 4.707031 -9.554688 4.707031 -10.277344 L 4.707031 -11.53125 C 4.707031 -12.257812 5.320312 -12.898438 6.042969 -12.898438 L 11.363281 -12.898438 C 12.089844 -12.898438 12.703125 -12.257812 12.703125 -11.53125 L 12.703125 -10.808594 L 15.402344 -10.808594 L 15.402344 -12.367188 C 15.402344 -14.039062 13.984375 -15.488281 12.3125 -15.488281 Z M 5.097656 -15.488281 "/></g></g></g><g fill="#ffffff" fill-opacity="1"><g transform="translate(92.481443, 79.977018)"><g><path d="M 5.097656 -15.488281 C 3.371094 -15.488281 2.003906 -14.09375 2.003906 -12.367188 L 2.003906 -9.582031 C 2.003906 -7.855469 3.371094 -6.488281 5.097656 -6.488281 L 11.363281 -6.488281 C 12.089844 -6.488281 12.703125 -5.90625 12.703125 -5.179688 L 12.703125 -3.925781 C 12.703125 -3.203125 12.089844 -2.5625 11.363281 -2.5625 L 6.042969 -2.5625 C 5.320312 -2.5625 4.707031 -3.203125 4.707031 -3.925781 L 4.707031 -4.652344 L 2.003906 -4.652344 L 2.003906 -3.09375 C 2.003906 -1.421875 3.425781 0 5.097656 0 L 12.3125 0 C 14.039062 0 15.402344 -1.363281 15.402344 -3.09375 L 15.402344 -5.765625 C 15.402344 -7.546875 14.039062 -8.96875 12.3125 -8.96875 L 6.042969 -8.96875 C 5.320312 -8.96875 4.707031 -9.554688 4.707031 -10.277344 L 4.707031 -11.53125 C 4.707031 -12.257812 5.320312 -12.898438 6.042969 -12.898438 L 11.363281 -12.898438 C 12.089844 -12.898438 12.703125 -12.257812 12.703125 -11.53125 L 12.703125 -10.808594 L 15.402344 -10.808594 L 15.402344 -12.367188 C 15.402344 -14.039062 13.984375 -15.488281 12.3125 -15.488281 Z M 5.097656 -15.488281 "/></g></g></g><g fill="#ffffff" fill-opacity="1"><g transform="translate(109.861935, 79.977018)"><g><path d="M 2.003906 -21.671875 L 2.003906 0 L 4.957031 0 L 4.957031 -9.414062 L 15.011719 -9.414062 L 15.011719 -12.257812 L 4.957031 -12.257812 L 4.957031 -18.828125 L 18.105469 -18.828125 L 18.105469 -21.671875 Z M 2.003906 -21.671875 "/></g></g></g><g fill="#ffffff" fill-opacity="1"><g transform="translate(128.050163, 79.977018)"><g><path d="M 1.976562 -15.488281 L 1.976562 0 L 4.679688 0 L 4.679688 -15.488281 Z M 1.78125 -21.671875 L 1.78125 -19.136719 L 4.902344 -19.136719 L 4.902344 -21.671875 Z M 1.78125 -21.671875 "/></g></g></g><g fill="#ffffff" fill-opacity="1"><g transform="translate(134.738593, 79.977018)"><g/></g></g></svg>