<svg xmlns="http://www.w3.org/2000/svg" xmlns:xlink="http://www.w3.org/1999/xlink" width="225" zoomAndPan="magnify" viewBox="0 0 168.75 97.5" height="130" preserveAspectRatio="xMidYMid meet" version="1.0"><defs><g/></defs><g fill="#ffffff" fill-opacity="1"><g transform="translate(51.279095, 34.510165)"><g><path d="M 6.046875 -15.476562 L 0.21875 0 L 2.425781 0 L 4 -4.097656 L 11.359375 -4.097656 L 12.929688 0 L 15.136719 0 L 9.308594 -15.476562 Z M 4.773438 -6.128906 L 7.679688 -13.6875 L 10.582031 -6.128906 Z M 4.773438 -6.128906 "/></g></g></g><g fill="#ffffff" fill-opacity="1"><g transform="translate(66.614374, 34.510165)"><g><path d="M 5.46875 -9.210938 L 8.117188 -9.210938 C 8.632812 -9.210938 9.070312 -8.753906 9.070312 -8.234375 L 9.070312 -2.804688 C 9.070312 -2.289062 8.632812 -1.832031 8.117188 -1.832031 L 5.46875 -1.832031 C 4.316406 -1.832031 3.363281 -2.882812 3.363281 -4.039062 L 3.363281 -7.121094 C 3.363281 -8.277344 4.316406 -9.210938 5.46875 -9.210938 Z M 1.433594 -15.476562 L 1.433594 0 L 3.363281 0 L 3.363281 -1.789062 C 3.800781 -0.734375 4.835938 0 6.027344 0 L 8.792969 0 C 10.027344 0 11 -0.976562 11 -2.207031 L 11 -8.832031 C 11 -10.066406 10.027344 -11.058594 8.792969 -11.058594 L 6.027344 -11.058594 C 4.914062 -11.058594 3.820312 -10.402344 3.363281 -9.308594 L 3.363281 -15.476562 Z M 1.433594 -15.476562 "/></g></g></g><g fill="#ffffff" fill-opacity="1"><g transform="translate(79.025803, 34.510165)"><g><path d="M 3.640625 -11.058594 C 2.40625 -11.058594 1.433594 -10.066406 1.433594 -8.832031 L 1.433594 -2.207031 C 1.433594 -0.976562 2.40625 0 3.640625 0 L 8.792969 0 C 10.027344 0 11 -0.976562 11 -2.207031 L 11 -8.832031 C 11 -10.066406 10.027344 -11.058594 8.792969 -11.058594 Z M 4.316406 -9.210938 L 8.117188 -9.210938 C 8.632812 -9.210938 9.070312 -8.753906 9.070312 -8.234375 L 9.070312 -2.804688 C 9.070312 -2.289062 8.632812 -1.832031 8.117188 -1.832031 L 4.316406 -1.832031 C 3.800781 -1.832031 3.363281 -2.289062 3.363281 -2.804688 L 3.363281 -8.234375 C 3.363281 -8.753906 3.800781 -9.210938 4.316406 -9.210938 Z M 4.316406 -9.210938 "/></g></g></g><g fill="#ffffff" fill-opacity="1"><g transform="translate(91.437233, 34.510165)"><g><path d="M 1.433594 -11.058594 L 1.433594 -2.207031 C 1.433594 -0.976562 2.40625 0 3.640625 0 L 6.367188 0 C 7.480469 0 8.613281 -0.714844 9.070312 -1.871094 L 9.070312 0 L 11 0 L 11 -11.058594 L 9.070312 -11.058594 L 9.070312 -4.097656 C 9.070312 -2.882812 8.117188 -1.832031 6.960938 -1.832031 L 4.316406 -1.832031 C 3.800781 -1.832031 3.363281 -2.289062 3.363281 -2.804688 L 3.363281 -11.058594 Z M 1.433594 -11.058594 "/></g></g></g><g fill="#ffffff" fill-opacity="1"><g transform="translate(103.848663, 34.510165)"><g><path d="M 1.613281 -15.277344 L 1.613281 -2.207031 C 1.613281 -0.976562 2.585938 0 3.820312 0 L 7.179688 0 L 7.179688 -1.832031 L 4.476562 -1.832031 C 3.957031 -1.832031 3.539062 -2.289062 3.539062 -2.804688 L 3.539062 -9.210938 L 7.179688 -9.210938 L 7.179688 -11.058594 L 3.539062 -11.058594 L 3.539062 -15.277344 Z M 1.613281 -15.277344 "/></g></g></g><g fill="#ffffff" fill-opacity="1"><g transform="translate(111.31108, 34.510165)"><g/></g></g><g fill="#ffffff" fill-opacity="1"><g transform="translate(42.290037, 62.118582)"><g><path d="M 3.640625 -15.476562 C 2.40625 -15.476562 1.433594 -14.503906 1.433594 -13.269531 L 1.433594 -2.207031 C 1.433594 -0.976562 2.40625 0 3.640625 0 L 11.71875 0 C 12.949219 0 13.925781 -0.976562 13.925781 -2.207031 L 13.925781 -3.640625 L 11.816406 -3.640625 L 11.816406 -2.945312 C 11.816406 -2.425781 11.398438 -2.027344 10.882812 -2.027344 L 4.476562 -2.027344 C 3.957031 -2.027344 3.539062 -2.425781 3.539062 -2.945312 L 3.539062 -12.53125 C 3.539062 -13.050781 3.957031 -13.449219 4.476562 -13.449219 L 10.882812 -13.449219 C 11.398438 -13.449219 11.816406 -13.050781 11.816406 -12.53125 L 11.816406 -11.835938 L 13.925781 -11.835938 L 13.925781 -13.269531 C 13.925781 -14.503906 12.949219 -15.476562 11.71875 -15.476562 Z M 3.640625 -15.476562 "/></g></g></g><g fill="#ffffff" fill-opacity="1"><g transform="translate(57.307074, 62.118582)"><g><path d="M 1.433594 -11.058594 L 1.433594 0 L 3.363281 0 L 3.363281 -7.121094 C 3.363281 -8.277344 4.316406 -9.210938 5.46875 -9.210938 L 7.816406 -9.210938 L 7.816406 -11.058594 L 6.046875 -11.058594 C 4.933594 -11.058594 3.820312 -10.382812 3.363281 -9.289062 L 3.363281 -11.058594 Z M 1.433594 -11.058594 "/></g></g></g><g fill="#ffffff" fill-opacity="1"><g transform="translate(65.3029, 62.118582)"><g><path d="M 3.640625 -11.058594 C 2.40625 -11.058594 1.433594 -10.066406 1.433594 -8.832031 L 1.433594 -2.207031 C 1.433594 -0.976562 2.40625 0 3.640625 0 L 8.792969 0 C 10.027344 0 11 -0.976562 11 -2.207031 L 11 -8.832031 C 11 -10.066406 10.027344 -11.058594 8.792969 -11.058594 Z M 4.316406 -9.210938 L 8.117188 -9.210938 C 8.632812 -9.210938 9.070312 -8.753906 9.070312 -8.234375 L 9.070312 -2.804688 C 9.070312 -2.289062 8.632812 -1.832031 8.117188 -1.832031 L 4.316406 -1.832031 C 3.800781 -1.832031 3.363281 -2.289062 3.363281 -2.804688 L 3.363281 -8.234375 C 3.363281 -8.753906 3.800781 -9.210938 4.316406 -9.210938 Z M 4.316406 -9.210938 "/></g></g></g><g fill="#ffffff" fill-opacity="1"><g transform="translate(77.71433, 62.118582)"><g><path d="M 3.640625 -11.058594 C 2.40625 -11.058594 1.433594 -10.066406 1.433594 -8.832031 L 1.433594 -6.84375 C 1.433594 -5.609375 2.40625 -4.636719 3.640625 -4.636719 L 8.117188 -4.636719 C 8.632812 -4.636719 9.070312 -4.21875 9.070312 -3.699219 L 9.070312 -2.804688 C 9.070312 -2.289062 8.632812 -1.832031 8.117188 -1.832031 L 4.316406 -1.832031 C 3.800781 -1.832031 3.363281 -2.289062 3.363281 -2.804688 L 3.363281 -3.320312 L 1.433594 -3.320312 L 1.433594 -2.207031 C 1.433594 -1.015625 2.445312 0 3.640625 0 L 8.792969 0 C 10.027344 0 11 -0.976562 11 -2.207031 L 11 -4.117188 C 11 -5.390625 10.027344 -6.40625 8.792969 -6.40625 L 4.316406 -6.40625 C 3.800781 -6.40625 3.363281 -6.824219 3.363281 -7.339844 L 3.363281 -8.234375 C 3.363281 -8.753906 3.800781 -9.210938 4.316406 -9.210938 L 8.117188 -9.210938 C 8.632812 -9.210938 9.070312 -8.753906 9.070312 -8.234375 L 9.070312 -7.71875 L 11 -7.71875 L 11 -8.832031 C 11 -10.027344 9.984375 -11.058594 8.792969 -11.058594 Z M 3.640625 -11.058594 "/></g></g></g><g fill="#ffffff" fill-opacity="1"><g transform="translate(90.12576, 62.118582)"><g><path d="M 3.640625 -11.058594 C 2.40625 -11.058594 1.433594 -10.066406 1.433594 -8.832031 L 1.433594 -6.84375 C 1.433594 -5.609375 2.40625 -4.636719 3.640625 -4.636719 L 8.117188 -4.636719 C 8.632812 -4.636719 9.070312 -4.21875 9.070312 -3.699219 L 9.070312 -2.804688 C 9.070312 -2.289062 8.632812 -1.832031 8.117188 -1.832031 L 4.316406 -1.832031 C 3.800781 -1.832031 3.363281 -2.289062 3.363281 -2.804688 L 3.363281 -3.320312 L 1.433594 -3.320312 L 1.433594 -2.207031 C 1.433594 -1.015625 2.445312 0 3.640625 0 L 8.792969 0 C 10.027344 0 11 -0.976562 11 -2.207031 L 11 -4.117188 C 11 -5.390625 10.027344 -6.40625 8.792969 -6.40625 L 4.316406 -6.40625 C 3.800781 -6.40625 3.363281 -6.824219 3.363281 -7.339844 L 3.363281 -8.234375 C 3.363281 -8.753906 3.800781 -9.210938 4.316406 -9.210938 L 8.117188 -9.210938 C 8.632812 -9.210938 9.070312 -8.753906 9.070312 -8.234375 L 9.070312 -7.71875 L 11 -7.71875 L 11 -8.832031 C 11 -10.027344 9.984375 -11.058594 8.792969 -11.058594 Z M 3.640625 -11.058594 "/></g></g></g><g fill="#ffffff" fill-opacity="1"><g transform="translate(102.537189, 62.118582)"><g><path d="M 1.433594 -15.476562 L 1.433594 0 L 3.539062 0 L 3.539062 -6.722656 L 10.722656 -6.722656 L 10.722656 -8.753906 L 3.539062 -8.753906 L 3.539062 -13.449219 L 12.929688 -13.449219 L 12.929688 -15.476562 Z M 1.433594 -15.476562 "/></g></g></g><g fill="#ffffff" fill-opacity="1"><g transform="translate(115.52543, 62.118582)"><g><path d="M 1.414062 -11.058594 L 1.414062 0 L 3.34375 0 L 3.34375 -11.058594 Z M 1.273438 -15.476562 L 1.273438 -13.667969 L 3.5 -13.667969 L 3.5 -15.476562 Z M 1.273438 -15.476562 "/></g></g></g><g fill="#ffffff" fill-opacity="1"><g transform="translate(120.300138, 62.118582)"><g/></g></g></svg>