<svg xmlns="http://www.w3.org/2000/svg" xmlns:xlink="http://www.w3.org/1999/xlink" width="225" zoomAndPan="magnify" viewBox="0 0 168.75 97.5" height="130" preserveAspectRatio="xMidYMid meet" version="1.0"><defs><g/></defs><g fill="#ffffff" fill-opacity="1"><g transform="translate(44.318696, 56.709184)"><g><path d="M 5.097656 -21.671875 C 3.371094 -21.671875 2.003906 -20.304688 2.003906 -18.578125 L 2.003906 -3.09375 C 2.003906 -1.363281 3.371094 0 5.097656 0 L 16.40625 0 C 18.132812 0 19.5 -1.363281 19.5 -3.09375 L 19.5 -5.097656 L 16.546875 -5.097656 L 16.546875 -4.121094 C 16.546875 -3.398438 15.960938 -2.839844 15.238281 -2.839844 L 6.265625 -2.839844 C 5.542969 -2.839844 4.957031 -3.398438 4.957031 -4.121094 L 4.957031 -17.546875 C 4.957031 -18.273438 5.542969 -18.828125 6.265625 -18.828125 L 15.238281 -18.828125 C 15.960938 -18.828125 16.546875 -18.273438 16.546875 -17.546875 L 16.546875 -16.574219 L 19.5 -16.574219 L 19.5 -18.578125 C 19.5 -20.304688 18.132812 -21.671875 16.40625 -21.671875 Z M 5.097656 -21.671875 "/></g></g></g><g fill="#ffffff" fill-opacity="1"><g transform="translate(65.347976, 56.709184)"><g><path d="M 5.097656 -15.488281 C 3.371094 -15.488281 2.003906 -14.09375 2.003906 -12.367188 L 2.003906 -3.09375 C 2.003906 -1.363281 3.371094 0 5.097656 0 L 12.3125 0 C 14.039062 0 15.402344 -1.363281 15.402344 -3.09375 L 15.402344 -12.367188 C 15.402344 -14.09375 14.039062 -15.488281 12.3125 -15.488281 Z M 6.042969 -12.898438 L 11.363281 -12.898438 C 12.089844 -12.898438 12.703125 -12.257812 12.703125 -11.53125 L 12.703125 -3.925781 C 12.703125 -3.203125 12.089844 -2.5625 11.363281 -2.5625 L 6.042969 -2.5625 C 5.320312 -2.5625 4.707031 -3.203125 4.707031 -3.925781 L 4.707031 -11.53125 C 4.707031 -12.257812 5.320312 -12.898438 6.042969 -12.898438 Z M 6.042969 -12.898438 "/></g></g></g><g fill="#ffffff" fill-opacity="1"><g transform="translate(82.728468, 56.709184)"><g><path d="M 1.976562 -15.488281 L 1.976562 0 L 4.679688 0 L 4.679688 -15.488281 Z M 1.78125 -21.671875 L 1.78125 -19.136719 L 4.902344 -19.136719 L 4.902344 -21.671875 Z M 1.78125 -21.671875 "/></g></g></g><g fill="#ffffff" fill-opacity="1"><g transform="translate(89.413276, 56.709184)"><g><path d="M 2.003906 -15.488281 L 2.003906 0 L 4.707031 0 L 4.707031 -9.972656 C 4.707031 -11.585938 6.042969 -12.898438 7.660156 -12.898438 L 11.363281 -12.898438 C 12.089844 -12.898438 12.703125 -12.257812 12.703125 -11.53125 L 12.703125 0 L 15.402344 0 L 15.402344 -12.367188 C 15.402344 -14.09375 14.039062 -15.488281 12.3125 -15.488281 L 8.441406 -15.488281 C 6.878906 -15.488281 5.347656 -14.566406 4.707031 -13.035156 L 4.707031 -15.488281 Z M 2.003906 -15.488281 "/></g></g></g><g fill="#ffffff" fill-opacity="1"><g transform="translate(106.793768, 56.709184)"><g><path d="M 5.097656 -15.488281 C 3.371094 -15.488281 2.003906 -14.09375 2.003906 -12.367188 L 2.003906 -9.582031 C 2.003906 -7.855469 3.371094 -6.488281 5.097656 -6.488281 L 11.363281 -6.488281 C 12.089844 -6.488281 12.703125 -5.90625 12.703125 -5.179688 L 12.703125 -3.925781 C 12.703125 -3.203125 12.089844 -2.5625 11.363281 -2.5625 L 6.042969 -2.5625 C 5.320312 -2.5625 4.707031 -3.203125 4.707031 -3.925781 L 4.707031 -4.652344 L 2.003906 -4.652344 L 2.003906 -3.09375 C 2.003906 -1.421875 3.425781 0 5.097656 0 L 12.3125 0 C 14.039062 0 15.402344 -1.363281 15.402344 -3.09375 L 15.402344 -5.765625 C 15.402344 -7.546875 14.039062 -8.96875 12.3125 -8.96875 L 6.042969 -8.96875 C 5.320312 -8.96875 4.707031 -9.554688 4.707031 -10.277344 L 4.707031 -11.53125 C 4.707031 -12.257812 5.320312 -12.898438 6.042969 -12.898438 L 11.363281 -12.898438 C 12.089844 -12.898438 12.703125 -12.257812 12.703125 -11.53125 L 12.703125 -10.808594 L 15.402344 -10.808594 L 15.402344 -12.367188 C 15.402344 -14.039062 13.984375 -15.488281 12.3125 -15.488281 Z M 5.097656 -15.488281 "/></g></g></g></svg>