<svg xmlns="http://www.w3.org/2000/svg" xmlns:xlink="http://www.w3.org/1999/xlink" width="225" zoomAndPan="magnify" viewBox="0 0 168.75 97.5" height="130" preserveAspectRatio="xMidYMid meet" version="1.0"><defs><g/></defs><g fill="#ffffff" fill-opacity="1"><g transform="translate(7.356879, 56.709184)"><g><path d="M 2.003906 -21.671875 L 2.003906 0 L 4.957031 0 L 4.957031 -7.492188 L 12.703125 -7.492188 L 17.605469 0 L 21.167969 0 L 16.265625 -7.492188 L 16.40625 -7.492188 C 18.132812 -7.492188 19.5 -8.886719 19.5 -10.613281 L 19.5 -18.578125 C 19.5 -20.304688 18.132812 -21.671875 16.40625 -21.671875 Z M 4.957031 -10.363281 L 4.957031 -18.828125 L 15.238281 -18.828125 C 15.960938 -18.828125 16.546875 -18.273438 16.546875 -17.546875 L 16.546875 -11.617188 C 16.546875 -10.890625 15.960938 -10.363281 15.238281 -10.363281 Z M 4.957031 -10.363281 "/></g></g></g><g fill="#ffffff" fill-opacity="1"><g transform="translate(28.636838, 56.709184)"><g><path d="M 5.097656 -15.488281 C 3.371094 -15.488281 2.003906 -14.09375 2.003906 -12.367188 L 2.003906 -3.09375 C 2.003906 -1.363281 3.371094 0 5.097656 0 L 12.3125 0 C 14.039062 0 15.402344 -1.363281 15.402344 -3.09375 L 15.402344 -4.789062 L 12.703125 -4.789062 L 12.703125 -3.925781 C 12.703125 -3.203125 12.089844 -2.5625 11.363281 -2.5625 L 6.042969 -2.5625 C 5.320312 -2.5625 4.707031 -3.203125 4.707031 -3.925781 L 4.707031 -6.488281 L 15.402344 -6.488281 L 15.402344 -12.367188 C 15.402344 -14.09375 14.039062 -15.488281 12.3125 -15.488281 Z M 4.707031 -8.96875 L 4.707031 -11.53125 C 4.707031 -12.257812 5.320312 -12.898438 6.042969 -12.898438 L 11.363281 -12.898438 C 12.089844 -12.898438 12.703125 -12.257812 12.703125 -11.53125 L 12.703125 -8.96875 Z M 4.707031 -8.96875 "/></g></g></g><g fill="#ffffff" fill-opacity="1"><g transform="translate(46.017329, 56.709184)"><g><path d="M 5.097656 -15.488281 C 3.371094 -15.488281 2.003906 -14.09375 2.003906 -12.367188 L 2.003906 -9.582031 C 2.003906 -7.855469 3.371094 -6.488281 5.097656 -6.488281 L 11.363281 -6.488281 C 12.089844 -6.488281 12.703125 -5.90625 12.703125 -5.179688 L 12.703125 -3.925781 C 12.703125 -3.203125 12.089844 -2.5625 11.363281 -2.5625 L 6.042969 -2.5625 C 5.320312 -2.5625 4.707031 -3.203125 4.707031 -3.925781 L 4.707031 -4.652344 L 2.003906 -4.652344 L 2.003906 -3.09375 C 2.003906 -1.421875 3.425781 0 5.097656 0 L 12.3125 0 C 14.039062 0 15.402344 -1.363281 15.402344 -3.09375 L 15.402344 -5.765625 C 15.402344 -7.546875 14.039062 -8.96875 12.3125 -8.96875 L 6.042969 -8.96875 C 5.320312 -8.96875 4.707031 -9.554688 4.707031 -10.277344 L 4.707031 -11.53125 C 4.707031 -12.257812 5.320312 -12.898438 6.042969 -12.898438 L 11.363281 -12.898438 C 12.089844 -12.898438 12.703125 -12.257812 12.703125 -11.53125 L 12.703125 -10.808594 L 15.402344 -10.808594 L 15.402344 -12.367188 C 15.402344 -14.039062 13.984375 -15.488281 12.3125 -15.488281 Z M 5.097656 -15.488281 "/></g></g></g><g fill="#ffffff" fill-opacity="1"><g transform="translate(63.397821, 56.709184)"><g><path d="M 5.097656 -15.488281 C 3.371094 -15.488281 2.003906 -14.09375 2.003906 -12.367188 L 2.003906 -3.09375 C 2.003906 -1.363281 3.371094 0 5.097656 0 L 12.3125 0 C 14.039062 0 15.402344 -1.363281 15.402344 -3.09375 L 15.402344 -12.367188 C 15.402344 -14.09375 14.039062 -15.488281 12.3125 -15.488281 Z M 6.042969 -12.898438 L 11.363281 -12.898438 C 12.089844 -12.898438 12.703125 -12.257812 12.703125 -11.53125 L 12.703125 -3.925781 C 12.703125 -3.203125 12.089844 -2.5625 11.363281 -2.5625 L 6.042969 -2.5625 C 5.320312 -2.5625 4.707031 -3.203125 4.707031 -3.925781 L 4.707031 -11.53125 C 4.707031 -12.257812 5.320312 -12.898438 6.042969 -12.898438 Z M 6.042969 -12.898438 "/></g></g></g><g fill="#ffffff" fill-opacity="1"><g transform="translate(80.778313, 56.709184)"><g><path d="M 2.003906 -15.488281 L 2.003906 -3.09375 C 2.003906 -1.363281 3.371094 0 5.097656 0 L 8.914062 0 C 10.472656 0 12.0625 -1.003906 12.703125 -2.617188 L 12.703125 0 L 15.402344 0 L 15.402344 -15.488281 L 12.703125 -15.488281 L 12.703125 -5.738281 C 12.703125 -4.039062 11.363281 -2.5625 9.75 -2.5625 L 6.042969 -2.5625 C 5.320312 -2.5625 4.707031 -3.203125 4.707031 -3.925781 L 4.707031 -15.488281 Z M 2.003906 -15.488281 "/></g></g></g><g fill="#ffffff" fill-opacity="1"><g transform="translate(98.158805, 56.709184)"><g><path d="M 2.003906 -15.488281 L 2.003906 0 L 4.707031 0 L 4.707031 -9.972656 C 4.707031 -11.585938 6.042969 -12.898438 7.660156 -12.898438 L 10.945312 -12.898438 L 10.945312 -15.488281 L 8.46875 -15.488281 C 6.90625 -15.488281 5.347656 -14.539062 4.707031 -13.007812 L 4.707031 -15.488281 Z M 2.003906 -15.488281 "/></g></g></g><g fill="#ffffff" fill-opacity="1"><g transform="translate(109.355847, 56.709184)"><g><path d="M 5.097656 -15.488281 C 3.371094 -15.488281 2.003906 -14.09375 2.003906 -12.367188 L 2.003906 -3.09375 C 2.003906 -1.363281 3.371094 0 5.097656 0 L 12.3125 0 C 14.039062 0 15.402344 -1.363281 15.402344 -3.09375 L 15.402344 -4.929688 L 12.703125 -4.929688 L 12.703125 -3.925781 C 12.703125 -3.203125 12.089844 -2.5625 11.363281 -2.5625 L 6.042969 -2.5625 C 5.320312 -2.5625 4.707031 -3.203125 4.707031 -3.925781 L 4.707031 -11.53125 C 4.707031 -12.257812 5.320312 -12.898438 6.042969 -12.898438 L 11.363281 -12.898438 C 12.089844 -12.898438 12.703125 -12.257812 12.703125 -11.53125 L 12.703125 -10.527344 L 15.402344 -10.527344 L 15.402344 -12.367188 C 15.402344 -14.09375 14.039062 -15.488281 12.3125 -15.488281 Z M 5.097656 -15.488281 "/></g></g></g><g fill="#ffffff" fill-opacity="1"><g transform="translate(126.374239, 56.709184)"><g><path d="M 5.097656 -15.488281 C 3.371094 -15.488281 2.003906 -14.09375 2.003906 -12.367188 L 2.003906 -3.09375 C 2.003906 -1.363281 3.371094 0 5.097656 0 L 12.3125 0 C 14.039062 0 15.402344 -1.363281 15.402344 -3.09375 L 15.402344 -4.789062 L 12.703125 -4.789062 L 12.703125 -3.925781 C 12.703125 -3.203125 12.089844 -2.5625 11.363281 -2.5625 L 6.042969 -2.5625 C 5.320312 -2.5625 4.707031 -3.203125 4.707031 -3.925781 L 4.707031 -6.488281 L 15.402344 -6.488281 L 15.402344 -12.367188 C 15.402344 -14.09375 14.039062 -15.488281 12.3125 -15.488281 Z M 4.707031 -8.96875 L 4.707031 -11.53125 C 4.707031 -12.257812 5.320312 -12.898438 6.042969 -12.898438 L 11.363281 -12.898438 C 12.089844 -12.898438 12.703125 -12.257812 12.703125 -11.53125 L 12.703125 -8.96875 Z M 4.707031 -8.96875 "/></g></g></g><g fill="#ffffff" fill-opacity="1"><g transform="translate(143.754731, 56.709184)"><g><path d="M 5.097656 -15.488281 C 3.371094 -15.488281 2.003906 -14.09375 2.003906 -12.367188 L 2.003906 -9.582031 C 2.003906 -7.855469 3.371094 -6.488281 5.097656 -6.488281 L 11.363281 -6.488281 C 12.089844 -6.488281 12.703125 -5.90625 12.703125 -5.179688 L 12.703125 -3.925781 C 12.703125 -3.203125 12.089844 -2.5625 11.363281 -2.5625 L 6.042969 -2.5625 C 5.320312 -2.5625 4.707031 -3.203125 4.707031 -3.925781 L 4.707031 -4.652344 L 2.003906 -4.652344 L 2.003906 -3.09375 C 2.003906 -1.421875 3.425781 0 5.097656 0 L 12.3125 0 C 14.039062 0 15.402344 -1.363281 15.402344 -3.09375 L 15.402344 -5.765625 C 15.402344 -7.546875 14.039062 -8.96875 12.3125 -8.96875 L 6.042969 -8.96875 C 5.320312 -8.96875 4.707031 -9.554688 4.707031 -10.277344 L 4.707031 -11.53125 C 4.707031 -12.257812 5.320312 -12.898438 6.042969 -12.898438 L 11.363281 -12.898438 C 12.089844 -12.898438 12.703125 -12.257812 12.703125 -11.53125 L 12.703125 -10.808594 L 15.402344 -10.808594 L 15.402344 -12.367188 C 15.402344 -14.039062 13.984375 -15.488281 12.3125 -15.488281 Z M 5.097656 -15.488281 "/></g></g></g></svg>