<svg xmlns="http://www.w3.org/2000/svg" xmlns:xlink="http://www.w3.org/1999/xlink" width="225" zoomAndPan="magnify" viewBox="0 0 168.75 97.5" height="130" preserveAspectRatio="xMidYMid meet" version="1.0"><defs><g/></defs><g fill="#ffffff" fill-opacity="1"><g transform="translate(5.346465, 56.709184)"><g><path d="M 4.957031 -18.828125 L 13.730469 -18.828125 C 15.265625 -18.828125 16.546875 -17.578125 16.546875 -16.042969 L 16.546875 -5.625 C 16.546875 -4.09375 15.265625 -2.839844 13.730469 -2.839844 L 4.957031 -2.839844 Z M 2.003906 -21.671875 L 2.003906 0 L 14.847656 0 C 17.382812 0 19.5 -2.117188 19.5 -4.652344 L 19.5 -17.019531 C 19.5 -19.554688 17.382812 -21.671875 14.847656 -21.671875 Z M 2.003906 -21.671875 "/></g></g></g><g fill="#ffffff" fill-opacity="1"><g transform="translate(26.821392, 56.709184)"><g><path d="M 5.097656 -15.488281 C 3.371094 -15.488281 2.003906 -14.09375 2.003906 -12.367188 L 2.003906 -3.09375 C 2.003906 -1.363281 3.371094 0 5.097656 0 L 12.3125 0 C 14.039062 0 15.402344 -1.363281 15.402344 -3.09375 L 15.402344 -4.789062 L 12.703125 -4.789062 L 12.703125 -3.925781 C 12.703125 -3.203125 12.089844 -2.5625 11.363281 -2.5625 L 6.042969 -2.5625 C 5.320312 -2.5625 4.707031 -3.203125 4.707031 -3.925781 L 4.707031 -6.488281 L 15.402344 -6.488281 L 15.402344 -12.367188 C 15.402344 -14.09375 14.039062 -15.488281 12.3125 -15.488281 Z M 4.707031 -8.96875 L 4.707031 -11.53125 C 4.707031 -12.257812 5.320312 -12.898438 6.042969 -12.898438 L 11.363281 -12.898438 C 12.089844 -12.898438 12.703125 -12.257812 12.703125 -11.53125 L 12.703125 -8.96875 Z M 4.707031 -8.96875 "/></g></g></g><g fill="#ffffff" fill-opacity="1"><g transform="translate(44.201884, 56.709184)"><g><path d="M 0.304688 -15.488281 L 6.265625 0 L 8.96875 0 L 14.929688 -15.488281 L 12.035156 -15.488281 L 7.632812 -3.09375 L 3.203125 -15.488281 Z M 0.304688 -15.488281 "/></g></g></g><g fill="#ffffff" fill-opacity="1"><g transform="translate(59.409814, 56.709184)"><g><path d="M 5.097656 -15.488281 C 3.371094 -15.488281 2.003906 -14.09375 2.003906 -12.367188 L 2.003906 -3.09375 C 2.003906 -1.363281 3.371094 0 5.097656 0 L 12.3125 0 C 14.039062 0 15.402344 -1.363281 15.402344 -3.09375 L 15.402344 -4.789062 L 12.703125 -4.789062 L 12.703125 -3.925781 C 12.703125 -3.203125 12.089844 -2.5625 11.363281 -2.5625 L 6.042969 -2.5625 C 5.320312 -2.5625 4.707031 -3.203125 4.707031 -3.925781 L 4.707031 -6.488281 L 15.402344 -6.488281 L 15.402344 -12.367188 C 15.402344 -14.09375 14.039062 -15.488281 12.3125 -15.488281 Z M 4.707031 -8.96875 L 4.707031 -11.53125 C 4.707031 -12.257812 5.320312 -12.898438 6.042969 -12.898438 L 11.363281 -12.898438 C 12.089844 -12.898438 12.703125 -12.257812 12.703125 -11.53125 L 12.703125 -8.96875 Z M 4.707031 -8.96875 "/></g></g></g><g fill="#ffffff" fill-opacity="1"><g transform="translate(76.790305, 56.709184)"><g><path d="M 2.003906 -21.671875 L 2.003906 0 L 4.707031 0 L 4.707031 -21.671875 Z M 2.003906 -21.671875 "/></g></g></g><g fill="#ffffff" fill-opacity="1"><g transform="translate(83.475114, 56.709184)"><g><path d="M 5.097656 -15.488281 C 3.371094 -15.488281 2.003906 -14.09375 2.003906 -12.367188 L 2.003906 -3.09375 C 2.003906 -1.363281 3.371094 0 5.097656 0 L 12.3125 0 C 14.039062 0 15.402344 -1.363281 15.402344 -3.09375 L 15.402344 -12.367188 C 15.402344 -14.09375 14.039062 -15.488281 12.3125 -15.488281 Z M 6.042969 -12.898438 L 11.363281 -12.898438 C 12.089844 -12.898438 12.703125 -12.257812 12.703125 -11.53125 L 12.703125 -3.925781 C 12.703125 -3.203125 12.089844 -2.5625 11.363281 -2.5625 L 6.042969 -2.5625 C 5.320312 -2.5625 4.707031 -3.203125 4.707031 -3.925781 L 4.707031 -11.53125 C 4.707031 -12.257812 5.320312 -12.898438 6.042969 -12.898438 Z M 6.042969 -12.898438 "/></g></g></g><g fill="#ffffff" fill-opacity="1"><g transform="translate(100.855605, 56.709184)"><g><path d="M 2.003906 -15.488281 L 2.003906 6.183594 L 4.707031 6.183594 L 4.707031 -2.535156 C 5.347656 -0.945312 6.878906 0 8.441406 0 L 12.3125 0 C 14.039062 0 15.402344 -1.363281 15.402344 -3.09375 L 15.402344 -12.367188 C 15.402344 -14.09375 14.039062 -15.488281 12.3125 -15.488281 L 8.441406 -15.488281 C 6.769531 -15.488281 5.320312 -14.457031 4.707031 -12.980469 L 4.707031 -15.488281 Z M 7.660156 -12.898438 L 11.226562 -12.898438 C 11.976562 -12.898438 12.703125 -12.285156 12.703125 -11.53125 L 12.703125 -3.925781 C 12.703125 -3.175781 11.976562 -2.5625 11.226562 -2.5625 L 7.660156 -2.5625 C 6.042969 -2.5625 4.707031 -3.984375 4.707031 -5.625 L 4.707031 -9.832031 C 4.707031 -11.449219 6.042969 -12.898438 7.660156 -12.898438 Z M 7.660156 -12.898438 "/></g></g></g><g fill="#ffffff" fill-opacity="1"><g transform="translate(118.236097, 56.709184)"><g><path d="M 5.097656 -15.488281 C 3.371094 -15.488281 2.003906 -14.09375 2.003906 -12.367188 L 2.003906 -3.09375 C 2.003906 -1.363281 3.371094 0 5.097656 0 L 12.3125 0 C 14.039062 0 15.402344 -1.363281 15.402344 -3.09375 L 15.402344 -4.789062 L 12.703125 -4.789062 L 12.703125 -3.925781 C 12.703125 -3.203125 12.089844 -2.5625 11.363281 -2.5625 L 6.042969 -2.5625 C 5.320312 -2.5625 4.707031 -3.203125 4.707031 -3.925781 L 4.707031 -6.488281 L 15.402344 -6.488281 L 15.402344 -12.367188 C 15.402344 -14.09375 14.039062 -15.488281 12.3125 -15.488281 Z M 4.707031 -8.96875 L 4.707031 -11.53125 C 4.707031 -12.257812 5.320312 -12.898438 6.042969 -12.898438 L 11.363281 -12.898438 C 12.089844 -12.898438 12.703125 -12.257812 12.703125 -11.53125 L 12.703125 -8.96875 Z M 4.707031 -8.96875 "/></g></g></g><g fill="#ffffff" fill-opacity="1"><g transform="translate(135.616589, 56.709184)"><g><path d="M 2.003906 -15.488281 L 2.003906 0 L 4.707031 0 L 4.707031 -9.972656 C 4.707031 -11.585938 6.042969 -12.898438 7.660156 -12.898438 L 10.945312 -12.898438 L 10.945312 -15.488281 L 8.46875 -15.488281 C 6.90625 -15.488281 5.347656 -14.539062 4.707031 -13.007812 L 4.707031 -15.488281 Z M 2.003906 -15.488281 "/></g></g></g><g fill="#ffffff" fill-opacity="1"><g transform="translate(146.813631, 56.709184)"><g><path d="M 5.097656 -15.488281 C 3.371094 -15.488281 2.003906 -14.09375 2.003906 -12.367188 L 2.003906 -9.582031 C 2.003906 -7.855469 3.371094 -6.488281 5.097656 -6.488281 L 11.363281 -6.488281 C 12.089844 -6.488281 12.703125 -5.90625 12.703125 -5.179688 L 12.703125 -3.925781 C 12.703125 -3.203125 12.089844 -2.5625 11.363281 -2.5625 L 6.042969 -2.5625 C 5.320312 -2.5625 4.707031 -3.203125 4.707031 -3.925781 L 4.707031 -4.652344 L 2.003906 -4.652344 L 2.003906 -3.09375 C 2.003906 -1.421875 3.425781 0 5.097656 0 L 12.3125 0 C 14.039062 0 15.402344 -1.363281 15.402344 -3.09375 L 15.402344 -5.765625 C 15.402344 -7.546875 14.039062 -8.96875 12.3125 -8.96875 L 6.042969 -8.96875 C 5.320312 -8.96875 4.707031 -9.554688 4.707031 -10.277344 L 4.707031 -11.53125 C 4.707031 -12.257812 5.320312 -12.898438 6.042969 -12.898438 L 11.363281 -12.898438 C 12.089844 -12.898438 12.703125 -12.257812 12.703125 -11.53125 L 12.703125 -10.808594 L 15.402344 -10.808594 L 15.402344 -12.367188 C 15.402344 -14.039062 13.984375 -15.488281 12.3125 -15.488281 Z M 5.097656 -15.488281 "/></g></g></g><g fill="#ffffff" fill-opacity="1"><g transform="translate(164.199798, 56.709184)"><g/></g></g></svg>